<svg width="50" height="87" viewBox="0 0 50 87" fill="none" xmlns="http://www.w3.org/2000/svg">
<path d="M42.2705 45.106L24.8648 72.7115L-9.19986 71.4669L8.33684 43.8415L42.2705 45.106Z" fill="#C5E9DA" stroke="#36B37E" stroke-width="0.474153" stroke-miterlimit="10" stroke-linejoin="round"/>
<path d="M8.33588 43.8406L-9.20083 71.4661L-22.7232 41.3862L-6.64018 14.5994L8.33588 43.8406Z" fill="white" stroke="#36B37E" stroke-width="0.474153" stroke-miterlimit="10" stroke-linejoin="round"/>
<path d="M8.33576 43.8414L19.437 29.0221L-6.6403 14.6002L8.33576 43.8414Z" fill="white" stroke="#36B37E" stroke-width="0.474153" stroke-miterlimit="10" stroke-linejoin="round"/>
<path d="M19.4375 29.0217L42.2699 45.1055L8.33624 43.8409L19.4375 29.0217Z" fill="white" stroke="#36B37E" stroke-width="0.474153" stroke-miterlimit="10" stroke-linejoin="round"/>
<path d="M-6.64023 14.5993L27.6373 16.5353L19.4371 29.0213L-6.64023 14.5993Z" fill="#C5E9DA" stroke="#36B37E" stroke-width="0.474153" stroke-miterlimit="10" stroke-linejoin="round"/>
<path d="M42.2699 45.1055L27.6377 16.5357L19.4375 29.0217L42.2699 45.1055Z" fill="white" stroke="#36B37E" stroke-width="0.474153" stroke-miterlimit="10" stroke-linejoin="round"/>
<path d="M13.9049 36.4207L10.5371 40.8762L13.9049 36.4207Z" fill="#644DF2"/>
<path d="M12.123 43.9727L10.5376 40.877L8.33604 43.8406L12.123 43.9727Z" fill="#36B37E"/>
<path d="M12.1227 43.9726L-4.98279 71.6127L0.866434 71.8185L17.8783 44.1793L12.1227 43.9726Z" fill="#36B37E"/>
<path d="M22.2096 44.3633L5.10404 72.0033L10.9533 72.2091L27.9651 44.5699L22.2096 44.3633Z" fill="#36B37E"/>
<path d="M22.2094 44.3633L16.3259 32.8757L13.9052 36.4224L17.8784 44.1803L22.2094 44.3633Z" fill="#36B37E"/>
<path d="M27.9648 44.5688L20.324 29.6498L31.9667 37.8582L35.5579 44.8701L27.9648 44.5688Z" fill="#36B37E"/>
<path d="M35.5582 44.8704L32.8791 48.832L39.7599 49.1215L42.2698 45.1053L35.5582 44.8704Z" fill="#172B4D"/>
<path d="M25.566 48.435L23.1307 52.413L30.6301 52.7152L33.1591 48.7364L25.566 48.435Z" fill="#172B4D"/>
<path d="M30.6305 52.7142L27.9513 56.6757L34.8321 56.9652L37.3612 52.9864L30.6305 52.7142Z" fill="#172B4D"/>
<path d="M20.1203 27.9651L19.4371 29.0213L24.1305 16.3068L27.6373 16.5353L20.1203 27.9651Z" fill="#172B4D"/>
<path d="M-12.7485 51.4848L-15.0089 46.4278L-11.9294 41.2255L-9.57534 46.2815L0.848266 29.2199C0.848266 29.2199 -5.64645 16.5388 -6.63976 14.5993C-7.63307 12.6599 -22.7419 41.3488 -22.7419 41.3488L-15.8852 56.5752L-12.7485 51.4848Z" fill="#172B4D"/>
</svg>
