<svg width="29" height="27" viewBox="0 0 29 27" fill="none" xmlns="http://www.w3.org/2000/svg">
<g clip-path="url(#clip0_48_1186)">
<path d="M19.2614 1.484L27.0414 11.3948L22.1693 23.6203L14.399 13.6593L19.2614 1.484Z" fill="#C5E9DA" stroke="#36B37E" stroke-width="0.474153" stroke-miterlimit="10" stroke-linejoin="round"/>
<path d="M14.3987 13.6577L22.169 23.6187L9.47664 24.6333L1.82275 15.3097L14.3987 13.6577Z" fill="white" stroke="#36B37E" stroke-width="0.474153" stroke-miterlimit="10" stroke-linejoin="round"/>
<path d="M14.3987 13.6582L10.4502 7.69883L1.82272 15.3102L14.3987 13.6582Z" fill="white" stroke="#36B37E" stroke-width="0.474153" stroke-miterlimit="10" stroke-linejoin="round"/>
<path d="M10.4497 7.69926L19.2605 1.4834L14.3981 13.6587L10.4497 7.69926Z" fill="white" stroke="#36B37E" stroke-width="0.474153" stroke-miterlimit="10" stroke-linejoin="round"/>
<path d="M1.82215 15.3106L6.97328 3.09742L10.4497 7.6992L1.82215 15.3106Z" fill="#C5E9DA" stroke="#36B37E" stroke-width="0.474153" stroke-miterlimit="10" stroke-linejoin="round"/>
<path d="M19.2605 1.4834L6.97331 3.09747L10.4497 7.69926L19.2605 1.4834Z" fill="white" stroke="#36B37E" stroke-width="0.474153" stroke-miterlimit="10" stroke-linejoin="round"/>
<path d="M12.4227 10.671L13.6059 12.4737L12.4227 10.671Z" fill="#644DF2"/>
<path d="M14.9375 12.2988L13.6061 12.4737L14.3982 13.6588L14.9375 12.2988Z" fill="#36B37E"/>
<path d="M14.9375 12.2999L22.769 22.106L23.6027 20.0057L15.7594 10.2338L14.9375 12.2999Z" fill="#36B37E"/>
<path d="M16.388 8.6817L24.2195 18.4878L25.0532 16.3876L17.2099 6.61563L16.388 8.6817Z" fill="#36B37E"/>
<path d="M16.3884 8.68164L11.4478 9.33064L12.4235 10.6711L15.76 10.2328L16.3884 8.68164Z" fill="#36B37E"/>
<path d="M17.2097 6.61553L10.7934 7.45839L15.2887 4.2897L18.3044 3.89355L17.2097 6.61553Z" fill="#36B37E"/>
<path d="M18.3046 3.89361L19.3976 5.38179L20.3956 2.91728L19.2608 1.48354L18.3046 3.89361Z" fill="#172B4D"/>
<path d="M18.3041 7.98955L19.4347 9.39121L20.5175 6.70342L19.3988 5.26757L18.3041 7.98955Z" fill="#172B4D"/>
<path d="M20.5174 6.70318L21.6104 8.19136L22.6084 5.72685L21.4896 4.29101L20.5174 6.70318Z" fill="#172B4D"/>
<path d="M10.1543 7.31375L10.4497 7.6992L6.43524 4.34296L6.97328 3.09742L10.1543 7.31375Z" fill="#172B4D"/>
<path d="M18.2132 23.9431L16.6986 22.1024L13.8628 22.377L15.355 24.1717L18.2132 23.9431Z" fill="#36B37E"/>
<path d="M14.4428 22.3171L12.3106 22.483L10.8184 20.6883L12.9624 20.4882L8.11061 14.4843C8.11061 14.4843 2.65674 15.2007 1.82262 15.3103C0.988504 15.4199 9.46047 24.636 9.46047 24.636L15.8868 24.1182L14.4428 22.3171Z" fill="#172B4D"/>
</g>
<defs>
<clipPath id="clip0_48_1186">
<rect width="22.4882" height="25.6754" fill="white" transform="translate(25.6981 0.556641) rotate(82.5164)"/>
</clipPath>
</defs>
</svg>
