<svg width="77" height="106" viewBox="0 0 77 106" fill="none" xmlns="http://www.w3.org/2000/svg">
<g clip-path="url(#clip0_48_1232)">
<path d="M89.4039 87.1839L43.0059 81.0286L23.6326 62.2342L26.2038 14.7653L32.5056 5.68429L46.5626 7.65L91.895 56.4968L89.4039 87.1839Z" fill="#C5E9DA" stroke="#36B37E" stroke-width="0.646395" stroke-miterlimit="10" stroke-linejoin="round"/>
<path d="M58.7094 83.1134L57.6371 69.466C57.6371 69.466 52.95 82.3425 51.0002 82.091C48.9974 81.8026 58.7094 83.1134 58.7094 83.1134Z" fill="#36B37E"/>
<path d="M69.7991 84.5928L80.4325 44.2135" stroke="#36B37E" stroke-width="0.646395" stroke-miterlimit="10"/>
<path d="M77.752 54.3135L76.954 40.3842" stroke="#36B37E" stroke-width="0.646395" stroke-miterlimit="10"/>
<path d="M25.9842 24.748L44.9476 37.0649L49.6417 42.5614L44.719 46.2449L25.6494 30.6904L25.9842 24.748Z" fill="white" stroke="#36B37E" stroke-width="0.646395"/>
<path d="M57.4493 76.0312L57.5914 54.9651" stroke="#36B37E" stroke-width="0.646395" stroke-miterlimit="10"/>
<path d="M25.4507 28.4899L25.635 28.2243L31.2815 31.1986L40.5683 39.9249L45.1627 36.819L46.5852 7.67193L32.5282 5.70622L26.2264 14.7872L25.4507 28.4899Z" fill="#172B4D"/>
<path d="M30.9501 31.6758L25.4629 28.8121L23.6555 62.2554L43.0288 81.0498L44.7105 46.6538L42.2743 42.6815L30.9501 31.6758Z" fill="#172B4D"/>
</g>
<defs>
<clipPath id="clip0_48_1232">
<rect width="93.8566" height="62.9589" fill="white" transform="translate(77.3095 105.234) rotate(-145.241)"/>
</clipPath>
</defs>
</svg>
