<svg width="35" height="177" viewBox="0 0 35 177" fill="none" xmlns="http://www.w3.org/2000/svg">
<g clip-path="url(#clip0_48_1142)">
<path d="M11.1952 70.0875L61.4322 18.2239L134.628 36.4026L84.0983 88.25L11.1952 70.0875Z" fill="#C5E9DA" stroke="#36B37E" stroke-width="0.976579" stroke-miterlimit="10" stroke-linejoin="round"/>
<path d="M53.3249 115.294L11.1957 70.0889L84.0988 88.2514L53.3249 115.294Z" fill="white" stroke="#36B37E" stroke-width="0.976579" stroke-miterlimit="10" stroke-linejoin="round"/>
<path d="M103.236 158.376L29.8938 138.604L53.3254 115.294L103.236 158.376Z" fill="#C5E9DA" stroke="#36B37E" stroke-width="0.976579" stroke-miterlimit="10" stroke-linejoin="round"/>
<path d="M11.1957 70.0889L29.8933 138.603L53.3249 115.294L11.1957 70.0889Z" fill="white" stroke="#36B37E" stroke-width="0.976579" stroke-miterlimit="10" stroke-linejoin="round"/>
<path d="M54.2958 80.8161L103.899 28.7412L91.3266 25.6369L41.9271 77.7524L54.2958 80.8161Z" fill="#36B37E"/>
<path d="M41.9264 77.7523L51.6902 113.53L30.2108 90.4639L25.6218 73.6484L41.9264 77.7523Z" fill="#36B37E"/>
<path d="M25.6219 73.6485L33.2238 66.2881L18.4561 62.5337L11.1958 70.0891L25.6219 73.6485Z" fill="#172B4D"/>
<path d="M48.878 70.4727L55.9594 62.966L39.8581 58.9028L32.5734 66.3688L48.878 70.4727Z" fill="#172B4D"/>
<path d="M39.8584 58.9033L47.4603 51.543L32.6926 47.7885L25.4078 55.2546L39.8584 58.9033Z" fill="#172B4D"/>
<path d="M51.366 117.271L53.3254 115.294L37.3833 140.692L29.8938 138.603L51.366 117.271Z" fill="#172B4D"/>
</g>
<defs>
<clipPath id="clip0_48_1142">
<rect width="128.874" height="147.139" fill="white" transform="translate(0.935638 34.2549) rotate(-15.2643)"/>
</clipPath>
</defs>
</svg>
