<svg width="53" height="59" viewBox="0 0 53 59" fill="none" xmlns="http://www.w3.org/2000/svg">
<g clip-path="url(#clip0_48_1256)">
<path d="M11.8973 40.6784L31.2772 7.52519C31.2772 7.52519 35.0095 2.59981 43.3299 7.00897C51.6503 11.4181 49.7568 16.9843 49.7568 16.9843L30.802 51.3942C30.802 51.3942 27.1629 55.4981 19.4687 51.5953C10.5203 47.0814 11.8973 40.6784 11.8973 40.6784Z" fill="#C5E9DA" stroke="#36B37E" stroke-width="0.289082" stroke-miterlimit="10"/>
<path d="M11.8977 40.6786C11.8977 40.6786 14.6593 35.9799 24.1288 40.7604C32.9982 45.2532 30.8024 51.3944 30.8024 51.3944C30.8024 51.3944 26.8329 55.3886 19.469 51.5955C12.1051 47.8024 11.8869 43.0882 11.8977 40.6786Z" fill="#36B37E"/>
<path d="M29.7257 10.1566C29.7257 10.1566 34.3966 13.1012 37.7343 21.0214C41.282 29.4211 40.2387 34.2628 40.2387 34.2628L44.0589 27.3506C44.0589 27.3506 44.7492 23.7475 40.454 14.9782C36.9548 7.81885 33.5969 5.81866 33.5969 5.81866L31.2668 7.56449L29.7257 10.1566Z" fill="#172B4D"/>
<path d="M22.9583 21.9089C22.9583 21.9089 27.1447 24.7659 30.1234 33.3941C33.102 42.0223 32.7091 47.9906 32.7091 47.9906L36.5293 41.0783C36.5293 41.0783 37.1285 35.5251 33.7485 27.7628C30.5969 20.5697 26.1183 16.5127 26.1183 16.5127L23.6272 20.7549L22.9583 21.9089Z" fill="#36B37E"/>
<path d="M24.1285 40.7607C24.1285 40.7607 24.6438 31.6509 20.235 26.3853L16.7834 32.317C16.7834 32.317 17.8494 34.9728 17.3315 38.6432C17.3315 38.6432 21.5808 39.5279 24.1285 40.7607Z" fill="#172B4D"/>
<path d="M20.598 44.3013L22.1162 45.4276L28.9625 44.9131C28.9625 44.9131 27.0827 42.2931 24.1285 40.7609L20.7717 42.2316L20.598 44.3013Z" fill="white" stroke="#36B37E" stroke-width="0.289082" stroke-miterlimit="10"/>
<path d="M13.96 39.2202C13.96 39.2202 12.3018 39.6435 11.8726 40.6924L19.9391 46.0493C19.9391 46.0493 20.5615 44.121 20.8176 43.6394C21.0986 43.1434 21.5751 42.2341 21.5751 42.2341L19.3156 38.8987C19.3406 38.8843 16.6321 37.7776 13.96 39.2202Z" fill="white" stroke="#36B37E" stroke-width="0.289082" stroke-miterlimit="10"/>
<path d="M41.3866 6.12897C41.3866 6.12897 44.9544 10.9788 46.1679 16.9543C47.3041 22.507 46.4424 23.0379 46.4424 23.0379L49.7572 16.9849C49.7572 16.9849 50.5741 14.4104 48.5448 11.2425C46.5156 8.07465 41.3866 6.12897 41.3866 6.12897Z" fill="#36B37E"/>
<path d="M20.8426 43.6259C20.8426 43.6259 18.281 44.1034 17.4192 44.6344C16.5575 45.1653 16.2927 45.2848 16.2927 45.2848L18.4744 46.4619L19.9641 46.0358L20.8426 43.6259Z" fill="white" stroke="#36B37E" stroke-width="0.289082" stroke-miterlimit="10"/>
<path d="M22.1305 45.4521L21.7795 47.1569L26.7759 53.1514C26.7759 53.1514 27.3933 53.2956 29.4367 52.3829L30.284 51.827L23.2927 44.7477C23.3072 44.7728 22.2988 44.5872 22.1305 45.4521Z" fill="white" stroke="#36B37E" stroke-width="0.289082" stroke-miterlimit="10"/>
<path d="M22.1308 45.4518C22.1308 45.4518 26.16 47.6319 26.0772 47.5462C25.9943 47.4605 23.7994 44.1213 23.7994 44.1213C23.7994 44.1213 22.0861 44.2759 22.1308 45.4518Z" fill="white" stroke="#36B37E" stroke-width="0.289082" stroke-miterlimit="10"/>
</g>
<defs>
<clipPath id="clip0_48_1256">
<rect width="48.4212" height="38.5925" fill="white" transform="translate(0.56427 24.6895) rotate(-30)"/>
</clipPath>
</defs>
</svg>
