<svg width="266" height="149" viewBox="0 0 266 149" fill="none" xmlns="http://www.w3.org/2000/svg">
<g clip-path="url(#clip0_34_2211)">
<path d="M209.296 106.296L100.432 91.8536L54.9759 47.7559L61.0087 -63.6214L75.7947 -84.9283L108.777 -80.3161L215.141 34.2942L209.296 106.296Z" fill="#C5E9DA" stroke="#36B37E" stroke-width="1.51665" stroke-miterlimit="10" stroke-linejoin="round"/>
<path d="M137.28 96.7483L134.764 64.7269C134.764 64.7269 123.766 94.9395 119.192 94.3493C114.492 93.6726 137.28 96.7483 137.28 96.7483Z" fill="#36B37E"/>
<path d="M163.299 100.221L188.248 5.4781" stroke="#36B37E" stroke-width="1.51665" stroke-miterlimit="10"/>
<path d="M181.958 29.1729L180.086 -3.50967" stroke="#36B37E" stroke-width="1.51665" stroke-miterlimit="10"/>
<path d="M60.4954 -40.1956L104.99 -11.2963L116.004 1.60045L104.453 10.243L59.71 -26.2529L60.4954 -40.1956Z" fill="white" stroke="#36B37E" stroke-width="1.51665"/>
<path d="M134.322 80.1289L134.655 30.701" stroke="#36B37E" stroke-width="1.51665" stroke-miterlimit="10"/>
<path d="M72.1468 -23.9389L59.2721 -30.6582L55.0313 47.8105L100.487 91.9082L104.433 11.2043L98.7171 1.88396L72.1468 -23.9389Z" fill="#172B4D"/>
</g>
<defs>
<clipPath id="clip0_34_2211">
<rect width="220.218" height="147.722" fill="white" transform="translate(180.921 148.649) rotate(-145.241)"/>
</clipPath>
</defs>
</svg>
