<svg width="294" height="278" viewBox="0 0 294 278" fill="none" xmlns="http://www.w3.org/2000/svg">
<g clip-path="url(#clip0_34_2235)">
<path d="M54.3526 193.519L147.293 34.5251C147.293 34.5251 165.192 10.9043 205.095 32.0495C244.997 53.1946 235.916 79.8886 235.916 79.8886L145.014 244.909C145.014 244.909 127.562 264.59 90.6626 245.873C47.7485 224.226 54.3526 193.519 54.3526 193.519Z" fill="#C5E9DA" stroke="#36B37E" stroke-width="1.38636" stroke-miterlimit="10"/>
<path d="M54.354 193.518C54.354 193.518 67.5976 170.985 113.011 193.911C155.546 215.457 145.016 244.909 145.016 244.909C145.016 244.909 125.979 264.064 90.664 245.873C55.3487 227.682 54.3022 205.074 54.354 193.518Z" fill="#36B37E"/>
<path d="M139.853 47.1458C139.853 47.1458 162.253 61.2671 178.26 99.2502C195.274 139.533 190.27 162.753 190.27 162.753L208.591 129.603C208.591 129.603 211.902 112.324 191.303 70.2687C174.522 35.9345 158.418 26.3422 158.418 26.3422L147.244 34.7147L139.853 47.1458Z" fill="#172B4D"/>
<path d="M107.398 103.503C107.398 103.503 127.475 117.205 141.759 158.583C156.044 199.961 154.16 228.584 154.16 228.584L172.48 195.434C172.48 195.434 175.354 168.802 159.144 131.577C144.03 97.0804 122.552 77.6244 122.552 77.6244L110.606 97.9687L107.398 103.503Z" fill="#36B37E"/>
<path d="M113.011 193.911C113.011 193.911 115.482 150.223 94.3386 124.97L77.7853 153.417C77.7853 153.417 82.8975 166.154 80.4137 183.756C80.4137 183.756 100.793 187.999 113.011 193.911Z" fill="#172B4D"/>
<path d="M96.0795 210.89L103.36 216.292L136.193 213.824C136.193 213.824 127.178 201.26 113.011 193.911L96.9123 200.965L96.0795 210.89Z" fill="white" stroke="#36B37E" stroke-width="1.38636" stroke-miterlimit="10"/>
<path d="M64.2448 186.527C64.2448 186.527 56.2921 188.557 54.2338 193.588L92.9185 219.278C92.9185 219.278 95.9038 210.031 97.1316 207.721C98.4795 205.342 100.764 200.981 100.764 200.981L89.9285 184.986C90.0486 184.916 77.0593 179.609 64.2448 186.527Z" fill="white" stroke="#36B37E" stroke-width="1.38636" stroke-miterlimit="10"/>
<path d="M195.774 27.8258C195.774 27.8258 212.884 51.0843 218.704 79.7411C224.153 106.37 220.02 108.917 220.02 108.917L235.918 79.888C235.918 79.888 239.835 67.5411 230.103 52.349C220.371 37.1568 195.774 27.8258 195.774 27.8258Z" fill="#36B37E"/>
<path d="M97.2516 207.652C97.2516 207.652 84.9668 209.942 80.8339 212.488C76.7011 215.034 75.4311 215.607 75.4311 215.607L85.8941 221.253L93.0385 219.209L97.2516 207.652Z" fill="white" stroke="#36B37E" stroke-width="1.38636" stroke-miterlimit="10"/>
<path d="M103.429 216.411L101.746 224.587L125.708 253.335C125.708 253.335 128.668 254.027 138.468 249.65L142.531 246.983L109.003 213.033C109.072 213.153 104.236 212.263 103.429 216.411Z" fill="white" stroke="#36B37E" stroke-width="1.38636" stroke-miterlimit="10"/>
<path d="M103.43 216.411C103.43 216.411 122.753 226.866 122.355 226.456C121.958 226.045 111.432 210.031 111.432 210.031C111.432 210.031 103.215 210.772 103.43 216.411Z" fill="white" stroke="#36B37E" stroke-width="1.38636" stroke-miterlimit="10"/>
</g>
<defs>
<clipPath id="clip0_34_2235">
<rect width="232.215" height="185.079" fill="white" transform="translate(0.000244141 116.844) rotate(-30)"/>
</clipPath>
</defs>
</svg>
