<svg width="146" height="157" viewBox="0 0 146 157" fill="none" xmlns="http://www.w3.org/2000/svg">
<g opacity="0.48" clip-path="url(#clip0_34_2223)">
<path d="M44.8053 28.8527L128.36 79.8199C128.36 79.8199 140.732 89.5657 129.099 110.557C117.466 131.548 103.373 126.457 103.373 126.457L16.5963 76.5132C16.5963 76.5132 6.31276 67.0441 16.6254 47.6242C28.5552 25.0378 44.8053 28.8527 44.8053 28.8527Z" fill="#C5E9DA" stroke="#36B37E" stroke-width="0.736762" stroke-miterlimit="10"/>
<path d="M44.8053 28.8525C44.8053 28.8525 56.6467 36.1139 44.0126 60.0155C32.1404 82.4017 16.5963 76.5131 16.5963 76.5131C16.5963 76.5131 6.60813 66.2073 16.6255 47.624C26.6428 29.0407 38.6657 28.7099 44.8053 28.8525Z" fill="#36B37E"/>
<path d="M121.728 75.7405C121.728 75.7405 114.001 87.502 93.6599 95.6286C72.0864 104.268 59.7987 101.378 59.7987 101.378L77.2298 111.442C77.2298 111.442 86.3781 113.374 108.929 102.848C127.339 94.273 132.597 85.812 132.597 85.812L128.259 79.7912L121.728 75.7405Z" fill="#172B4D"/>
<path d="M92.106 57.9343C92.106 57.9343 84.6257 68.4655 62.4973 75.6435C40.3689 82.8214 25.1794 81.535 25.1794 81.535L42.6105 91.5998C42.6105 91.5998 56.7326 93.3919 76.6736 85.15C95.1536 77.4629 105.705 66.2444 105.705 66.2444L95.0146 59.694L92.106 57.9343Z" fill="#36B37E"/>
<path d="M44.0125 60.0155C44.0125 60.0155 67.2015 61.7636 80.8298 50.781L65.8797 41.7021C65.8797 41.7021 59.0613 44.2916 49.7331 42.7965C49.7331 42.7965 47.2758 53.5823 44.0125 60.0155Z" fill="#172B4D"/>
<path d="M35.1593 50.8505L32.2167 54.6653L33.2008 72.1355C33.2008 72.1355 39.9666 67.4706 44.0122 60.0159L40.4249 51.3919L35.1593 50.8505Z" fill="white" stroke="#36B37E" stroke-width="0.736762" stroke-miterlimit="10"/>
<path d="M48.4216 34.1782C48.4216 34.1782 47.4221 29.9324 44.7698 28.7886L30.734 49.0876C30.734 49.0876 35.6179 50.7659 36.8329 51.4413C38.0835 52.1812 40.3778 53.4386 40.3778 53.4386L48.9849 47.8405C49.0205 47.9049 51.9699 41.056 48.4216 34.1782Z" fill="white" stroke="#36B37E" stroke-width="0.736762" stroke-miterlimit="10"/>
<path d="M131.436 105.646C131.436 105.646 118.907 114.506 103.623 117.312C89.4191 119.943 88.1074 117.721 88.1074 117.721L103.373 126.457C103.373 126.457 109.895 128.662 118.064 123.642C126.233 118.623 131.436 105.646 131.436 105.646Z" fill="#36B37E"/>
<path d="M36.8681 51.5054C36.8681 51.5054 35.7736 44.9551 34.4619 42.7337C33.1502 40.5124 32.8583 39.8319 32.8583 39.8319L29.7545 45.3351L30.7692 49.1516L36.8681 51.5054Z" fill="white" stroke="#36B37E" stroke-width="0.736762" stroke-miterlimit="10"/>
<path d="M32.1525 54.7009L27.8253 53.7251L12.3115 66.1704C12.3115 66.1704 11.9144 67.7367 14.1425 72.9871L15.5187 75.1728L33.8919 57.696C33.8274 57.7316 34.3484 55.1709 32.1525 54.7009Z" fill="white" stroke="#36B37E" stroke-width="0.736762" stroke-miterlimit="10"/>
<path d="M32.1525 54.7009C32.1525 54.7009 26.4048 64.864 26.6271 64.657C26.8494 64.4499 35.4632 59.0163 35.4632 59.0163C35.4632 59.0163 35.151 54.6433 32.1525 54.7009Z" fill="white" stroke="#36B37E" stroke-width="0.736762" stroke-miterlimit="10"/>
</g>
<defs>
<clipPath id="clip0_34_2223">
<rect width="123.408" height="98.3577" fill="white" transform="translate(86.0874 0.736328) rotate(61.0741)"/>
</clipPath>
</defs>
</svg>
