<svg width="285" height="288" viewBox="0 0 285 288" fill="none" xmlns="http://www.w3.org/2000/svg">
<g clip-path="url(#clip0_34_2186)">
<path d="M30.2924 132.725L178.988 40.4528C178.988 40.4528 59.7305 228.868 57.7308 228.056C57.7308 228.056 39.1872 158.239 30.2924 132.725Z" fill="white" stroke="#36B37E" stroke-width="1.43899" stroke-miterlimit="10" stroke-linejoin="round"/>
<path d="M178.988 40.4526L183.471 46.6228C183.471 46.6228 188.303 241.183 187.999 243.079C187.695 244.975 190.678 246.808 185.995 248.012C181.312 249.216 98.3845 236.184 77.991 232.093C57.7309 228.056 57.7309 228.056 57.7309 228.056L178.988 40.4526Z" fill="#36B37E"/>
<path d="M86.7361 121.485L123.14 219.215L185.45 185.506L182.954 83.0683L86.7361 121.485Z" fill="#C5E9DA"/>
<mask id="mask0_34_2186" style="mask-type:alpha" maskUnits="userSpaceOnUse" x="87" y="83" width="99" height="137">
<path d="M87.2161 122.19L123.62 219.92L185.93 186.211L183.434 83.7734L87.2161 122.19Z" fill="#C5E9DA"/>
</mask>
<g mask="url(#mask0_34_2186)">
<path d="M176.527 181.561L159.871 178.211L159.487 199.8L141.573 196.871L140.431 220.327L159.017 222.752L176.694 225.118L193.463 227.426L192.779 205.404L176.494 202.671L176.527 181.561Z" fill="#36B37E"/>
<path d="M142.439 174.858L159.871 178.212L160.221 157.852L143.46 153.994L142.439 174.858Z" fill="#36B37E"/>
<path d="M124.208 171.179L122.671 193.697L141.573 196.872L142.44 174.858L124.208 171.179Z" fill="#36B37E"/>
<path d="M124.208 171.179L125.658 150.023L107.002 145.861L104.935 167.387L124.208 171.179Z" fill="#36B37E"/>
<path d="M104.935 167.388L84.8087 163.405L81.7965 186.878L78.5885 211.979L100.378 214.928L120.992 217.711L122.671 193.698L102.727 190.41L104.935 167.388Z" fill="#36B37E"/>
<path d="M222.013 190.411L220.672 171.538L206.607 168.309L191.821 164.943L191.334 146.262L176.39 142.52L160.725 138.642L160.221 157.852L176.448 161.493L176.527 181.562L192.384 184.586L192.779 205.405L208.344 208L207.465 187.607L222.013 190.411Z" fill="#36B37E"/>
<path d="M204.982 132.546L190.867 128.676L191.334 146.261L205.824 149.974L204.982 132.546Z" fill="#36B37E"/>
<path d="M144.26 134.437L160.725 138.641L161.037 120.285L145.135 115.844L128.378 111.211L127.074 130.096L125.658 150.023L143.46 153.993L144.26 134.437Z" fill="#36B37E"/>
<path d="M109.035 125.563L90.1955 120.705L87.5458 141.374L107.002 145.861L109.035 125.563Z" fill="#36B37E"/>
<path d="M66.915 136.72L63.3737 159.201L84.8087 163.405L87.5459 141.374L66.915 136.72Z" fill="#36B37E"/>
</g>
<path d="M86.7359 121.485L140.509 99.9956L101.751 161.755L86.7359 121.485Z" fill="#172B4D"/>
<path d="M57.3726 115.769L45.728 184.194" stroke="#36B37E" stroke-width="1.43899" stroke-miterlimit="10" stroke-linejoin="round"/>
<path d="M54.9437 130.159L50.2943 120.194L57.3726 115.769L54.9437 130.159Z" fill="#172B4D"/>
<path d="M150.728 58.0178L165.11 61.9965" stroke="#36B37E" stroke-width="1.43899" stroke-miterlimit="10" stroke-linejoin="round"/>
<path d="M97.022 151.603L132.48 241.338" stroke="white" stroke-width="1.43899" stroke-miterlimit="10" stroke-linejoin="round"/>
</g>
<defs>
<clipPath id="clip0_34_2186">
<rect width="217" height="220.885" fill="white" transform="translate(83.1362 0.736328) rotate(22.1095)"/>
</clipPath>
</defs>
</svg>
